<mxfile host="app.diagrams.net" modified="2023-07-21T09:20:01.015Z" agent="Mozilla/5.0 (Windows NT 10.0; Win64; x64) AppleWebKit/537.36 (KHTML, like Gecko) Chrome/114.0.0.0 Safari/537.36 Edg/114.0.1823.82" etag="eSCk4i4dYKqFXjSnZz3R" version="21.6.3" type="github">
  <diagram name="第 1 页" id="sJj2Khma3AWzXAdMd9nR">
    <mxGraphModel dx="1166" dy="775" grid="1" gridSize="10" guides="1" tooltips="1" connect="1" arrows="1" fold="1" page="1" pageScale="1" pageWidth="827" pageHeight="1169" math="0" shadow="0">
      <root>
        <mxCell id="0" />
        <mxCell id="1" parent="0" />
        <mxCell id="6FvVIO85GW4BajubxaDC-6" value="" style="edgeStyle=orthogonalEdgeStyle;rounded=0;orthogonalLoop=1;jettySize=auto;html=1;" edge="1" parent="1" source="6FvVIO85GW4BajubxaDC-2" target="6FvVIO85GW4BajubxaDC-4">
          <mxGeometry relative="1" as="geometry" />
        </mxCell>
        <mxCell id="6FvVIO85GW4BajubxaDC-2" value="点击获取可借额度按钮" style="rounded=1;whiteSpace=wrap;html=1;" vertex="1" parent="1">
          <mxGeometry x="364" y="210" width="100" height="30" as="geometry" />
        </mxCell>
        <mxCell id="6FvVIO85GW4BajubxaDC-8" style="edgeStyle=orthogonalEdgeStyle;rounded=0;orthogonalLoop=1;jettySize=auto;html=1;entryX=0.5;entryY=0;entryDx=0;entryDy=0;" edge="1" parent="1" source="6FvVIO85GW4BajubxaDC-4" target="6FvVIO85GW4BajubxaDC-7">
          <mxGeometry relative="1" as="geometry" />
        </mxCell>
        <mxCell id="6FvVIO85GW4BajubxaDC-4" value="风险审批" style="rounded=1;whiteSpace=wrap;html=1;" vertex="1" parent="1">
          <mxGeometry x="364" y="270" width="100" height="30" as="geometry" />
        </mxCell>
        <mxCell id="6FvVIO85GW4BajubxaDC-13" value="" style="edgeStyle=orthogonalEdgeStyle;rounded=0;orthogonalLoop=1;jettySize=auto;html=1;" edge="1" parent="1" source="6FvVIO85GW4BajubxaDC-7" target="6FvVIO85GW4BajubxaDC-10">
          <mxGeometry relative="1" as="geometry" />
        </mxCell>
        <mxCell id="6FvVIO85GW4BajubxaDC-7" value="" style="whiteSpace=wrap;html=1;rounded=0;shadow=0;comic=0;labelBackgroundColor=none;strokeWidth=1;fillColor=#000000;fontFamily=Verdana;fontSize=12;align=center;rotation=0;" vertex="1" parent="1">
          <mxGeometry x="340.5" y="330" width="147" height="10" as="geometry" />
        </mxCell>
        <mxCell id="6FvVIO85GW4BajubxaDC-17" style="rounded=0;orthogonalLoop=1;jettySize=auto;html=1;entryX=0.25;entryY=0;entryDx=0;entryDy=0;exitX=0.5;exitY=1;exitDx=0;exitDy=0;" edge="1" parent="1" source="6FvVIO85GW4BajubxaDC-9" target="6FvVIO85GW4BajubxaDC-15">
          <mxGeometry relative="1" as="geometry" />
        </mxCell>
        <mxCell id="6FvVIO85GW4BajubxaDC-9" value="身份验证" style="rounded=1;whiteSpace=wrap;html=1;" vertex="1" parent="1">
          <mxGeometry x="240.5" y="370" width="100" height="30" as="geometry" />
        </mxCell>
        <mxCell id="6FvVIO85GW4BajubxaDC-16" style="edgeStyle=orthogonalEdgeStyle;rounded=0;orthogonalLoop=1;jettySize=auto;html=1;entryX=0.5;entryY=0;entryDx=0;entryDy=0;" edge="1" parent="1" source="6FvVIO85GW4BajubxaDC-10" target="6FvVIO85GW4BajubxaDC-15">
          <mxGeometry relative="1" as="geometry" />
        </mxCell>
        <mxCell id="6FvVIO85GW4BajubxaDC-10" value="活体验证" style="rounded=1;whiteSpace=wrap;html=1;" vertex="1" parent="1">
          <mxGeometry x="364" y="370" width="100" height="30" as="geometry" />
        </mxCell>
        <mxCell id="6FvVIO85GW4BajubxaDC-18" style="rounded=0;orthogonalLoop=1;jettySize=auto;html=1;entryX=0.75;entryY=0;entryDx=0;entryDy=0;" edge="1" parent="1" source="6FvVIO85GW4BajubxaDC-11" target="6FvVIO85GW4BajubxaDC-15">
          <mxGeometry relative="1" as="geometry" />
        </mxCell>
        <mxCell id="6FvVIO85GW4BajubxaDC-11" value="反欺诈(系统/人工)" style="rounded=1;whiteSpace=wrap;html=1;" vertex="1" parent="1">
          <mxGeometry x="490" y="370" width="100" height="30" as="geometry" />
        </mxCell>
        <mxCell id="6FvVIO85GW4BajubxaDC-12" value="" style="endArrow=classic;html=1;rounded=0;exitX=0.25;exitY=1;exitDx=0;exitDy=0;entryX=0.5;entryY=0;entryDx=0;entryDy=0;" edge="1" parent="1" source="6FvVIO85GW4BajubxaDC-7" target="6FvVIO85GW4BajubxaDC-9">
          <mxGeometry width="50" height="50" relative="1" as="geometry">
            <mxPoint x="220" y="480" as="sourcePoint" />
            <mxPoint x="270" y="430" as="targetPoint" />
          </mxGeometry>
        </mxCell>
        <mxCell id="6FvVIO85GW4BajubxaDC-14" value="" style="endArrow=classic;html=1;rounded=0;exitX=0.75;exitY=1;exitDx=0;exitDy=0;entryX=0.5;entryY=0;entryDx=0;entryDy=0;" edge="1" parent="1" source="6FvVIO85GW4BajubxaDC-7" target="6FvVIO85GW4BajubxaDC-11">
          <mxGeometry width="50" height="50" relative="1" as="geometry">
            <mxPoint x="500" y="470" as="sourcePoint" />
            <mxPoint x="550" y="420" as="targetPoint" />
          </mxGeometry>
        </mxCell>
        <mxCell id="6FvVIO85GW4BajubxaDC-20" value="" style="edgeStyle=orthogonalEdgeStyle;rounded=0;orthogonalLoop=1;jettySize=auto;html=1;" edge="1" parent="1" source="6FvVIO85GW4BajubxaDC-15" target="6FvVIO85GW4BajubxaDC-19">
          <mxGeometry relative="1" as="geometry" />
        </mxCell>
        <mxCell id="6FvVIO85GW4BajubxaDC-15" value="" style="whiteSpace=wrap;html=1;rounded=0;shadow=0;comic=0;labelBackgroundColor=none;strokeWidth=1;fillColor=#000000;fontFamily=Verdana;fontSize=12;align=center;rotation=0;" vertex="1" parent="1">
          <mxGeometry x="340" y="430" width="147" height="10" as="geometry" />
        </mxCell>
        <mxCell id="6FvVIO85GW4BajubxaDC-22" value="" style="edgeStyle=orthogonalEdgeStyle;rounded=0;orthogonalLoop=1;jettySize=auto;html=1;" edge="1" parent="1" source="6FvVIO85GW4BajubxaDC-19" target="6FvVIO85GW4BajubxaDC-21">
          <mxGeometry relative="1" as="geometry" />
        </mxCell>
        <mxCell id="6FvVIO85GW4BajubxaDC-26" value="" style="edgeStyle=orthogonalEdgeStyle;rounded=0;orthogonalLoop=1;jettySize=auto;html=1;" edge="1" parent="1" source="6FvVIO85GW4BajubxaDC-19" target="6FvVIO85GW4BajubxaDC-25">
          <mxGeometry relative="1" as="geometry" />
        </mxCell>
        <mxCell id="6FvVIO85GW4BajubxaDC-19" value="" style="rhombus;whiteSpace=wrap;html=1;" vertex="1" parent="1">
          <mxGeometry x="392" y="470" width="44" height="40" as="geometry" />
        </mxCell>
        <mxCell id="6FvVIO85GW4BajubxaDC-24" value="" style="edgeStyle=orthogonalEdgeStyle;rounded=0;orthogonalLoop=1;jettySize=auto;html=1;" edge="1" parent="1" source="6FvVIO85GW4BajubxaDC-21" target="6FvVIO85GW4BajubxaDC-23">
          <mxGeometry relative="1" as="geometry" />
        </mxCell>
        <mxCell id="6FvVIO85GW4BajubxaDC-21" value="信用风险评估" style="rounded=1;whiteSpace=wrap;html=1;" vertex="1" parent="1">
          <mxGeometry x="487" y="475" width="100" height="30" as="geometry" />
        </mxCell>
        <mxCell id="6FvVIO85GW4BajubxaDC-27" value="" style="edgeStyle=orthogonalEdgeStyle;rounded=0;orthogonalLoop=1;jettySize=auto;html=1;" edge="1" parent="1" source="6FvVIO85GW4BajubxaDC-23" target="6FvVIO85GW4BajubxaDC-25">
          <mxGeometry relative="1" as="geometry" />
        </mxCell>
        <mxCell id="6FvVIO85GW4BajubxaDC-41" value="" style="edgeStyle=orthogonalEdgeStyle;rounded=0;orthogonalLoop=1;jettySize=auto;html=1;" edge="1" parent="1" source="6FvVIO85GW4BajubxaDC-23" target="6FvVIO85GW4BajubxaDC-40">
          <mxGeometry relative="1" as="geometry" />
        </mxCell>
        <mxCell id="6FvVIO85GW4BajubxaDC-23" value="" style="rhombus;whiteSpace=wrap;html=1;" vertex="1" parent="1">
          <mxGeometry x="515" y="540" width="44" height="40" as="geometry" />
        </mxCell>
        <mxCell id="6FvVIO85GW4BajubxaDC-30" value="" style="edgeStyle=orthogonalEdgeStyle;rounded=0;orthogonalLoop=1;jettySize=auto;html=1;" edge="1" parent="1" source="6FvVIO85GW4BajubxaDC-25" target="6FvVIO85GW4BajubxaDC-29">
          <mxGeometry relative="1" as="geometry" />
        </mxCell>
        <mxCell id="6FvVIO85GW4BajubxaDC-25" value="" style="whiteSpace=wrap;html=1;rounded=0;shadow=0;comic=0;labelBackgroundColor=none;strokeWidth=1;fillColor=#000000;fontFamily=Verdana;fontSize=12;align=center;rotation=0;" vertex="1" parent="1">
          <mxGeometry x="340.5" y="555" width="147" height="10" as="geometry" />
        </mxCell>
        <mxCell id="6FvVIO85GW4BajubxaDC-28" value="" style="shape=mxgraph.bpmn.shape;html=1;verticalLabelPosition=bottom;labelBackgroundColor=#ffffff;verticalAlign=top;perimeter=ellipsePerimeter;outline=end;symbol=terminate;rounded=0;shadow=0;comic=0;strokeWidth=1;fontFamily=Verdana;fontSize=12;align=center;" vertex="1" parent="1">
          <mxGeometry x="399" y="660" width="30" height="30" as="geometry" />
        </mxCell>
        <mxCell id="6FvVIO85GW4BajubxaDC-31" value="" style="edgeStyle=orthogonalEdgeStyle;rounded=0;orthogonalLoop=1;jettySize=auto;html=1;" edge="1" parent="1" source="6FvVIO85GW4BajubxaDC-29" target="6FvVIO85GW4BajubxaDC-28">
          <mxGeometry relative="1" as="geometry" />
        </mxCell>
        <mxCell id="6FvVIO85GW4BajubxaDC-29" value="通知用户审批不通过" style="rounded=1;whiteSpace=wrap;html=1;" vertex="1" parent="1">
          <mxGeometry x="364" y="600" width="100" height="30" as="geometry" />
        </mxCell>
        <mxCell id="6FvVIO85GW4BajubxaDC-32" value="通过" style="text;html=1;align=center;verticalAlign=middle;resizable=0;points=[];autosize=1;strokeColor=none;fillColor=none;" vertex="1" parent="1">
          <mxGeometry x="429" y="460" width="50" height="30" as="geometry" />
        </mxCell>
        <mxCell id="6FvVIO85GW4BajubxaDC-33" value="审批不通过" style="text;html=1;align=center;verticalAlign=middle;resizable=0;points=[];autosize=1;strokeColor=none;fillColor=none;" vertex="1" parent="1">
          <mxGeometry x="407.5" y="518" width="80" height="30" as="geometry" />
        </mxCell>
        <mxCell id="6FvVIO85GW4BajubxaDC-36" value="" style="edgeStyle=orthogonalEdgeStyle;rounded=0;orthogonalLoop=1;jettySize=auto;html=1;" edge="1" parent="1" source="6FvVIO85GW4BajubxaDC-34" target="6FvVIO85GW4BajubxaDC-2">
          <mxGeometry relative="1" as="geometry" />
        </mxCell>
        <mxCell id="6FvVIO85GW4BajubxaDC-34" value="授权系统查询征信信息" style="rounded=1;whiteSpace=wrap;html=1;" vertex="1" parent="1">
          <mxGeometry x="230" y="210" width="100" height="30" as="geometry" />
        </mxCell>
        <mxCell id="6FvVIO85GW4BajubxaDC-37" value="" style="edgeStyle=orthogonalEdgeStyle;rounded=0;orthogonalLoop=1;jettySize=auto;html=1;" edge="1" parent="1" source="6FvVIO85GW4BajubxaDC-35" target="6FvVIO85GW4BajubxaDC-34">
          <mxGeometry relative="1" as="geometry" />
        </mxCell>
        <mxCell id="6FvVIO85GW4BajubxaDC-35" value="" style="ellipse;whiteSpace=wrap;html=1;rounded=0;shadow=0;comic=0;labelBackgroundColor=none;strokeWidth=1;fillColor=#000000;fontFamily=Verdana;fontSize=12;align=center;" vertex="1" parent="1">
          <mxGeometry x="170" y="210" width="30" height="30" as="geometry" />
        </mxCell>
        <mxCell id="6FvVIO85GW4BajubxaDC-39" value="不通过" style="text;html=1;align=center;verticalAlign=middle;resizable=0;points=[];autosize=1;strokeColor=none;fillColor=none;" vertex="1" parent="1">
          <mxGeometry x="475" y="560" width="60" height="30" as="geometry" />
        </mxCell>
        <mxCell id="6FvVIO85GW4BajubxaDC-44" value="" style="edgeStyle=orthogonalEdgeStyle;rounded=0;orthogonalLoop=1;jettySize=auto;html=1;" edge="1" parent="1" source="6FvVIO85GW4BajubxaDC-40" target="6FvVIO85GW4BajubxaDC-43">
          <mxGeometry relative="1" as="geometry" />
        </mxCell>
        <mxCell id="6FvVIO85GW4BajubxaDC-40" value="信用等级评估" style="rounded=1;whiteSpace=wrap;html=1;" vertex="1" parent="1">
          <mxGeometry x="600" y="545" width="100" height="30" as="geometry" />
        </mxCell>
        <mxCell id="6FvVIO85GW4BajubxaDC-42" value="通过" style="text;html=1;align=center;verticalAlign=middle;resizable=0;points=[];autosize=1;strokeColor=none;fillColor=none;" vertex="1" parent="1">
          <mxGeometry x="550" y="535" width="50" height="30" as="geometry" />
        </mxCell>
        <mxCell id="6FvVIO85GW4BajubxaDC-46" value="" style="edgeStyle=orthogonalEdgeStyle;rounded=0;orthogonalLoop=1;jettySize=auto;html=1;" edge="1" parent="1" source="6FvVIO85GW4BajubxaDC-43" target="6FvVIO85GW4BajubxaDC-45">
          <mxGeometry relative="1" as="geometry" />
        </mxCell>
        <mxCell id="6FvVIO85GW4BajubxaDC-43" value="展示可借额度" style="rounded=1;whiteSpace=wrap;html=1;" vertex="1" parent="1">
          <mxGeometry x="600" y="600" width="100" height="30" as="geometry" />
        </mxCell>
        <mxCell id="6FvVIO85GW4BajubxaDC-47" style="edgeStyle=orthogonalEdgeStyle;rounded=0;orthogonalLoop=1;jettySize=auto;html=1;" edge="1" parent="1" source="6FvVIO85GW4BajubxaDC-45">
          <mxGeometry relative="1" as="geometry">
            <mxPoint x="430" y="675" as="targetPoint" />
          </mxGeometry>
        </mxCell>
        <mxCell id="6FvVIO85GW4BajubxaDC-45" value="上报全行" style="rounded=1;whiteSpace=wrap;html=1;" vertex="1" parent="1">
          <mxGeometry x="600" y="660" width="100" height="30" as="geometry" />
        </mxCell>
      </root>
    </mxGraphModel>
  </diagram>
</mxfile>
